; NON-PLATED HOLES START AT T1
; THROUGH (PLATED) HOLES START AT T100
M48
INCH
T100C0.030000
T101C0.035000
T102C0.038000
T103C0.022334
T104C0.031497
T105C0.040000
T106C0.032000
T107C0.015748
%
T100
X018691Y014297
X018691Y006297
X017691Y006297
X017691Y014297
T101
X016691Y008297
X013691Y008297
X008691Y008297
X008691Y012297
X015691Y012297
X015691Y004297
X018691Y004297
X008691Y015297
X005691Y016297
X012691Y007297
X012691Y008297
X012691Y015297
X005691Y008297
X008691Y009297
X008691Y001297
X012691Y006297
X008691Y016297
X009134Y007139
X009134Y004139
X013691Y016297
X012691Y016297
X008691Y004297
X018691Y012297
X012691Y014297
X016691Y016297
T102
X016546Y000628
X014546Y000628
X015546Y000628
T103
X010135Y004376
X001162Y012364
X010135Y003378
X010135Y009369
X010135Y007372
X010135Y011366
X001162Y004376
X001162Y015360
X010135Y012364
X001162Y014361
X010135Y016358
X010135Y014361
X010135Y006373
X001162Y006373
X010135Y013363
X001162Y002379
X001162Y003378
X010135Y008370
X001162Y016358
X001162Y005375
X001162Y008370
X001162Y013363
X010135Y010367
X010135Y005375
X010135Y002379
X001162Y011366
X010135Y015360
X001162Y010367
X001162Y009369
X001162Y007372
T104
X017691Y016297
X017691Y008297
X018676Y008297
X018676Y016297
T105
X021217Y005012
X022217Y004012
X003791Y016297
X020932Y016265
X021932Y013265
X020932Y017265
X021217Y007012
X021217Y006012
X022217Y007012
X021932Y015265
X020932Y013265
X020932Y014265
X021217Y004012
X022217Y005012
X002691Y016297
X021932Y017265
X003791Y007297
X021932Y016265
X021217Y003012
X022217Y006012
X021932Y014265
X002691Y007297
X020932Y015265
X022217Y003012
T106
X005691Y001297
X005692Y010306
X002691Y001297
X004691Y004297
X004691Y001297
X003691Y001297
X002692Y013306
X004692Y010306
X003692Y010306
X003692Y013306
X005692Y013306
X005691Y004297
X004692Y013306
X003691Y004297
X002691Y004297
X002692Y010306
T107
X020171Y010223
X015761Y010181
T00
M30
